<svg id="Layer_1" data-name="Layer 1" xmlns="http://www.w3.org/2000/svg" viewBox="0 0 1152 864"><defs><style>.cls-1{fill:#27b3c6;}</style></defs><title>RealtimeConf Logo</title><path class="cls-1" d="M152.67,517l-29.6-128.36H112.15V517H66.62V218.7h52.82c18.67,0,38.25,2.68,52.36,21,9.56,12.52,17.3,29.52,17.3,64.85,0,56.8-17.76,67.54-27.77,73.35L199.57,517h-46.9ZM112.15,349.74h7.28c16.85,0,21.86-8,21.86-47.86,0-45.17-10-45.17-21.86-45.17h-7.28v93Z"/><path class="cls-1" d="M216.56,517V218.7H319.91v38H262.09v85H304v38H262.09V479H324v38H216.56Z"/><path class="cls-1" d="M430,517l-10.47-82.29H383.07L373.51,517H333l46.9-298.31H424.5L472.76,517H430ZM415.39,398.49l-6.83-53.22c-1.82-14.31-8.19-72.9-9.1-81.4-0.46,8.5-.91,16.1-2.28,30-2.73,28.63-3.19,31.76-5,51.88l-5.92,52.77h29.14Z"/><path class="cls-1" d="M488.75,517V218.7h45.53V479h56.92v38H488.75Z"/><path class="cls-1" d="M607.77,517V256.71h-33.7v-38H686.54v38H653.3V517H607.77Z"/><path class="cls-1" d="M699.79,517V218.7h45.53V517H699.79Z"/><path class="cls-1" d="M907.28,517V404.31c0-15.21.91-64.41,1.36-108.68-0.91,5.37-10.47,77.82-15,108.68L875.86,517H842.17L823.5,401.62c-10.47-64.85-10.47-65.3-14.57-106,1.37,58.59,2.28,93,2.28,107.34V517H775.69V218.7h49.18l25,156.54c3.65,20.13,6.38,50.09,9.57,84.53,1.36-29.52,4.1-49.2,10-84.53L893.62,218.7h50.54V517H907.28Z"/><path class="cls-1" d="M975,517V218.7h103.36v38h-57.82v85h41.89v38h-41.89V479h61.92v38H975Z"/><path class="cls-1" d="M164.85,723.77c-2.66,18.63-9.65,47.77-44.59,47.77-39.27,0-50.91-32.15-50.91-103.65,0-70.91,12.31-101.55,50.58-101.55,26,0,41.26,15.62,44.92,50.17l-30.95,3.6c-1.66-19.52-5.32-28.54-14.64-28.54-9,0-11.31,9-12.64,19.83-2.33,15-2.33,38.16-2.33,58.29,0,18.33,0,51.37,4.66,66.7,0.67,3,3.33,9.92,11.31,9.92,10,0,11.64-9.92,13.64-26.14Z"/><path class="cls-1" d="M221.91,566.34c35.27,0,50.58,25.24,50.58,102.75s-15.31,102.45-50.58,102.45c-44.92,0-50.24-43.56-50.24-102.45C171.66,612.3,176,566.34,221.91,566.34Zm-12,168.25c1.33,5.71,3.66,12,12,12s10.65-6,12-12c3-13.52,3-56.79,3-60.39,0-28.54-.33-41.16-1.66-62.49-0.66-14.72-4.66-20.43-13.31-20.43-8.32,0-10.65,5.7-12,12-2.66,12.62-2.66,64.59-2.66,65.8C207.26,684.71,207.26,721.06,209.92,734.58Z"/><path class="cls-1" d="M358.79,769.13L329.18,680.5c-1-3-8-23.13-14.31-50.48,1,22.84,2.66,61.89,2.66,74.51v64.59H290.25V568.74H318.2l28.28,90.13c7.65,24.34,10.31,33.35,15.3,52.58-1.66-23.74-3-49.57-3-71.51v-71.2h27V769.13h-27Z"/><path class="cls-1" d="M408.1,769.13V568.74h74.2v25.54H441.38v58h32.94V677.8H441.38v91.33H408.1Z"/><path class="cls-1" d="M494.68,769.13V568.74h75.53v25.54H528v57.09h30.61V676.9H528v66.69h45.25v25.54H494.68Z"/><path class="cls-1" d="M649.07,769.13l-21.63-86.23h-8v86.23H586.18V568.74h38.6c13.64,0,28,1.8,38.27,14.12,7,8.41,12.64,19.83,12.64,43.56,0,38.15-13,45.37-20.3,49.27l28,93.44H649.07ZM619.46,656.77h5.32c12.31,0,16-5.41,16-32.14,0-30.35-7.32-30.35-16-30.35h-5.32v62.49Z"/><path class="cls-1" d="M695.75,769.13V568.74h75.53v25.54H729v57.09h30.61V676.9H729v66.69h45.25v25.54H695.75Z"/><path class="cls-1" d="M855.79,769.13L826.18,680.5c-1-3-8-23.13-14.31-50.48,1,22.84,2.66,61.89,2.66,74.51v64.59H787.25V568.74h28l28.28,90.13c7.65,24.34,10.31,33.35,15.31,52.58-1.66-23.74-3-49.57-3-71.51v-71.2h27V769.13h-27Z"/><path class="cls-1" d="M996.24,723.77c-2.66,18.63-9.65,47.77-44.59,47.77-39.26,0-50.91-32.15-50.91-103.65,0-70.91,12.31-101.55,50.57-101.55,26,0,41.26,15.62,44.92,50.17l-30.95,3.6c-1.66-19.52-5.32-28.54-14.64-28.54-9,0-11.31,9-12.64,19.83-2.33,15-2.33,38.16-2.33,58.29,0,18.33,0,51.37,4.66,66.7,0.67,3,3.33,9.92,11.31,9.92,10,0,11.65-9.92,13.64-26.14Z"/><path class="cls-1" d="M1006.85,769.13V568.74h75.53v25.54h-42.26v57.09h30.62V676.9h-30.62v66.69h45.25v25.54h-78.53Z"/><path class="cls-1" d="M119,119.39q0,3-3,5.59a9.13,9.13,0,0,1-5.89,2.58h-1.8q-1.68.12-4.57,0.12-10.22,19.12-12.38,23.44-5.65,11.43-5.65,15.15,0,4.81,4.33,4.81,3.48,0,8.78-5.53a91.08,91.08,0,0,0,8.42-10.22q4.09-5.53,4.33-5.53,1.56,0,1.56,4.33,0,1.44-5,8.54a100.06,100.06,0,0,1-11.3,13.47q-7.33,7-12,7A20.65,20.65,0,0,1,73.44,180Q68,176.64,68,171.72q0-5.4,7.21-19.8,1.45-3,11.66-22l1.45-2.64q-6.13-.72-6.13-4a31,31,0,0,1,.24-4.92,1,1,0,0,1,1.21-.84h3.72a30.07,30.07,0,0,0,3.37-.36c1.68-.24,2.68-0.36,3-0.36q10.94-20.2,12.62-20.2a8.72,8.72,0,0,1,6.49,2.89,7.32,7.32,0,0,1,2.4,4.93q0,1.68-6.13,13.1h6.49Q119,117.47,119,119.39Z"/><path class="cls-1" d="M173.36,153.78q0,1.92-5.17,9.14a80.4,80.4,0,0,1-11.66,13.35q-7.57,6.85-13,6.85a11,11,0,0,1-7.75-3.07,10,10,0,0,1-3.31-7.63q0-8.77,6.73-22.24a106.34,106.34,0,0,1,9-15.27l-0.48-.24a179.71,179.71,0,0,0-27.41,31q-2.77,4.22-7.21,12.53-2.65,4.94-4,4.94-2.16,0-4.93-2.53a7.44,7.44,0,0,1-2.77-5.54q0-3.25,21.28-44.54,19.72-38,22.48-38a12.41,12.41,0,0,1,4.81,1.2q3.49,1.56,3.49,3.73,0,1.68-10.1,20.44-12.86,23.69-15.63,29.34l0.12,0.24a160.84,160.84,0,0,1,12.62-13.59Q152.44,122,156.65,122a20.18,20.18,0,0,1,7.33,1.5q3.85,1.5,3.85,3.06,0,1.32-3.13,7.44L156,150.1q-7.46,14.51-7.45,18.47,0,2.52,2.77,2.52,3.72,0,12.14-10.7t8.29-10.7Q173.36,149.69,173.36,153.78Z"/><path class="cls-1" d="M219.38,153.9q0,2.65-5.53,9.62A65,65,0,0,1,199.91,177Q190,183.72,181,183.72q-6.13,0-10.34-5.35a20.06,20.06,0,0,1-4.21-12.8q0-12.26,11.06-27.05,11.66-15.63,23.09-15.63a23.05,23.05,0,0,0,5.23-.66,20.63,20.63,0,0,1,3.91-.66,6.63,6.63,0,0,1,5.17,2.76,9.74,9.74,0,0,1,2.28,6.37q0,7.82-9.14,15.75a34.54,34.54,0,0,1-23.56,8.9h-1.08a25.2,25.2,0,0,0-2.52,9.79q0,8.6,6.37,8.6,7.09,0,14.79-6.13a69.94,69.94,0,0,0,10.82-11.54q4.81-6.13,5-6.13Q219.38,149.93,219.38,153.9Zm-11.06-23.32a1.86,1.86,0,0,0-2.16-2q-3.13,0-9.14,6.31a72.93,72.93,0,0,0-10.58,14.37q7.34-1.56,14.61-7.58T208.32,130.58Z"/></svg>