<svg id="Layer_1" data-name="Layer 1" xmlns="http://www.w3.org/2000/svg" viewBox="0 0 2051.59 1056.54"><defs><style>.cls-1{fill:#27b3c6;}.cls-2{fill:#fcc941;}.cls-3{fill:#4e4e4e;}</style></defs><title>RealtimeConf Logo</title><path class="cls-1" d="M981.89,601.52L952.3,473.16H941.37V601.52H895.84V303.21h52.82c18.67,0,38.25,2.68,52.36,21,9.56,12.52,17.3,29.52,17.3,64.85,0,56.8-17.76,67.54-27.77,73.35l38.24,139.09h-46.9ZM941.37,434.25h7.28c16.85,0,21.86-8,21.86-47.86,0-45.17-10-45.17-21.86-45.17h-7.28v93Z"/><path class="cls-1" d="M1045.77,601.52V303.21h103.36v38H1091.3v85h41.89v38H1091.3v99.29h61.92v38H1045.77Z"/><path class="cls-1" d="M1259.18,601.52l-10.47-82.29h-36.42l-9.56,82.29H1162.2l46.9-298.31h44.62L1302,601.52h-42.8ZM1244.61,483l-6.83-53.22c-1.82-14.31-8.19-72.9-9.1-81.4-0.46,8.5-.91,16.1-2.28,30-2.73,28.63-3.19,31.76-5,51.88L1215.47,483h29.14Z"/><path class="cls-1" d="M1318,601.52V303.21h45.53v260.3h56.92v38H1318Z"/><path class="cls-1" d="M1437,601.52V341.22h-33.7v-38h112.46v38h-33.24v260.3H1437Z"/><path class="cls-1" d="M1529,601.52V303.21h45.53V601.52H1529Z"/><path class="cls-1" d="M1736.5,601.52V488.82c0-15.21.91-64.41,1.36-108.68-0.91,5.37-10.47,77.82-15,108.68l-17.76,112.7h-33.69l-18.67-115.39c-10.47-64.85-10.47-65.3-14.57-106,1.37,58.59,2.28,93,2.28,107.34v114H1604.9V303.21h49.18l25,156.54c3.65,20.13,6.38,50.09,9.57,84.53,1.36-29.52,4.1-49.2,10-84.53l24.13-156.54h50.54V601.52H1736.5Z"/><path class="cls-1" d="M1804.2,601.52V303.21h103.36v38h-57.82v85h41.89v38h-41.89v99.29h61.92v38H1804.2Z"/><path class="cls-1" d="M994.06,808.28C991.4,826.91,984.41,856,949.48,856c-39.27,0-50.91-32.15-50.91-103.65,0-70.91,12.31-101.55,50.58-101.55,26,0,41.26,15.62,44.92,50.17l-30.95,3.6c-1.66-19.52-5.32-28.54-14.64-28.54-9,0-11.31,9-12.64,19.83-2.33,15-2.33,38.16-2.33,58.29,0,18.33,0,51.37,4.66,66.7,0.67,3,3.33,9.92,11.31,9.92,10,0,11.64-9.92,13.64-26.14Z"/><path class="cls-1" d="M1051.12,650.85c35.27,0,50.58,25.24,50.58,102.75S1086.39,856,1051.12,856c-44.92,0-50.24-43.56-50.24-102.45C1000.88,696.81,1005.21,650.85,1051.12,650.85Zm-12,168.25c1.33,5.71,3.66,12,12,12s10.65-6,12-12c3-13.52,3-56.79,3-60.39,0-28.54-.33-41.16-1.66-62.49-0.66-14.72-4.66-20.43-13.31-20.43-8.32,0-10.65,5.7-12,12-2.66,12.62-2.66,64.59-2.66,65.8C1036.48,769.22,1036.48,805.57,1039.14,819.1Z"/><path class="cls-1" d="M1188,853.64L1158.4,765c-1-3-8-23.13-14.31-50.48,1,22.84,2.66,61.89,2.66,74.51v64.59h-27.28V653.25h27.95l28.28,90.13c7.65,24.34,10.31,33.35,15.3,52.58-1.66-23.74-3-49.57-3-71.51v-71.2h27V853.64h-27Z"/><path class="cls-1" d="M1237.32,853.64V653.25h74.2v25.54h-40.93v58h32.94v25.54h-32.94v91.33h-33.27Z"/><path class="cls-1" d="M1323.9,853.64V653.25h75.53v25.54h-42.25v57.09h30.61v25.54h-30.61v66.69h45.25v25.54H1323.9Z"/><path class="cls-1" d="M1478.29,853.64l-21.63-86.23h-8v86.23H1415.4V653.25H1454c13.64,0,28,1.8,38.27,14.12,7,8.41,12.64,19.83,12.64,43.56,0,38.15-13,45.37-20.3,49.27l28,93.44h-34.27Zm-29.61-112.36H1454c12.31,0,16-5.41,16-32.14,0-30.35-7.32-30.35-16-30.35h-5.32v62.49Z"/><path class="cls-1" d="M1525,853.64V653.25h75.53v25.54h-42.25v57.09h30.61v25.54h-30.61v66.69h45.25v25.54H1525Z"/><path class="cls-1" d="M1685,853.64L1655.4,765c-1-3-8-23.13-14.31-50.48,1,22.84,2.66,61.89,2.66,74.51v64.59h-27.29V653.25h28l28.28,90.13c7.65,24.34,10.31,33.35,15.31,52.58-1.66-23.74-3-49.57-3-71.51v-71.2h27V853.64h-27Z"/><path class="cls-1" d="M1825.46,808.28c-2.66,18.63-9.65,47.77-44.59,47.77C1741.61,856,1730,823.9,1730,752.4c0-70.91,12.31-101.55,50.57-101.55,26,0,41.26,15.62,44.92,50.17l-30.95,3.6c-1.66-19.52-5.32-28.54-14.64-28.54-9,0-11.31,9-12.64,19.83-2.33,15-2.33,38.16-2.33,58.29,0,18.33,0,51.37,4.66,66.7,0.67,3,3.33,9.92,11.31,9.92,10,0,11.65-9.92,13.64-26.14Z"/><path class="cls-1" d="M1836.07,853.64V653.25h75.53v25.54h-42.26v57.09H1900v25.54h-30.62v66.69h45.25v25.54h-78.53Z"/><path class="cls-1" d="M948.22,203.91q0,3-3,5.59a9.13,9.13,0,0,1-5.89,2.58h-1.8q-1.68.12-4.57,0.12-10.22,19.12-12.38,23.44-5.65,11.43-5.65,15.15,0,4.81,4.33,4.81,3.48,0,8.78-5.53a91.08,91.08,0,0,0,8.42-10.22q4.09-5.53,4.33-5.53,1.56,0,1.56,4.33,0,1.44-5,8.54A100.06,100.06,0,0,1,926,260.66q-7.33,7-12,7a20.65,20.65,0,0,1-11.3-3.12q-5.42-3.36-5.41-8.28,0-5.4,7.21-19.8,1.45-3,11.66-22l1.45-2.64q-6.13-.72-6.13-4a31,31,0,0,1,.24-4.92,1,1,0,0,1,1.21-.84h3.72a30.07,30.07,0,0,0,3.37-.36c1.68-.24,2.68-0.36,3-0.36q10.94-20.2,12.62-20.2a8.72,8.72,0,0,1,6.49,2.89,7.32,7.32,0,0,1,2.4,4.93q0,1.68-6.13,13.1h6.49Q948.22,202,948.22,203.91Z"/><path class="cls-1" d="M1002.58,238.29q0,1.92-5.17,9.14a80.4,80.4,0,0,1-11.66,13.35q-7.57,6.85-13,6.85a11,11,0,0,1-7.75-3.07,10,10,0,0,1-3.31-7.63q0-8.77,6.73-22.24a106.34,106.34,0,0,1,9-15.27l-0.48-.24a179.71,179.71,0,0,0-27.41,31q-2.77,4.22-7.21,12.53-2.65,4.94-4,4.94-2.16,0-4.93-2.53a7.44,7.44,0,0,1-2.77-5.54q0-3.25,21.28-44.54,19.72-38,22.48-38a12.41,12.41,0,0,1,4.81,1.2q3.49,1.56,3.49,3.73,0,1.68-10.1,20.44Q959.78,226,957,231.68l0.12,0.24a160.84,160.84,0,0,1,12.62-13.59q11.9-11.78,16.11-11.78a20.18,20.18,0,0,1,7.33,1.5q3.85,1.5,3.85,3.06,0,1.32-3.13,7.44l-8.65,16.07q-7.46,14.51-7.45,18.47,0,2.52,2.77,2.52,3.72,0,12.14-10.7t8.29-10.7Q1002.58,234.21,1002.58,238.29Z"/><path class="cls-1" d="M1048.6,238.41q0,2.65-5.53,9.62a65,65,0,0,1-13.95,13.47q-9.86,6.74-18.88,6.73-6.13,0-10.34-5.35a20.06,20.06,0,0,1-4.21-12.8q0-12.26,11.06-27.05,11.66-15.63,23.09-15.63a23.05,23.05,0,0,0,5.23-.66,20.63,20.63,0,0,1,3.91-.66,6.63,6.63,0,0,1,5.17,2.76,9.74,9.74,0,0,1,2.28,6.37q0,7.82-9.14,15.75a34.54,34.54,0,0,1-23.56,8.9h-1.08a25.2,25.2,0,0,0-2.52,9.79q0,8.6,6.37,8.6,7.09,0,14.79-6.13a69.94,69.94,0,0,0,10.82-11.54q4.81-6.13,5-6.13Q1048.6,234.45,1048.6,238.41Zm-11.06-23.32a1.86,1.86,0,0,0-2.16-2q-3.13,0-9.14,6.31a72.93,72.93,0,0,0-10.58,14.37q7.34-1.56,14.61-7.58T1037.54,215.09Z"/><polygon class="cls-2" points="685.9 212.49 349.15 543.5 467.75 539.87 298.68 831.88 667.66 466.69 549.79 470.27 685.9 212.49"/><rect class="cls-1" x="467.74" y="218.21" width="49.1" height="96.41" rx="7.09" ry="7.09"/><rect class="cls-1" x="467.74" y="729.74" width="49.1" height="96.41" rx="7.09" ry="7.09"/><rect class="cls-1" x="699.84" y="497.64" width="96.41" height="49.1" rx="7.09" ry="7.09"/><rect class="cls-1" x="188.32" y="497.64" width="96.41" height="49.1" rx="7.09" ry="7.09"/><path class="cls-1" d="M681.52,430.22a7.09,7.09,0,0,0,9.69,2.59l34.51-20a7.09,7.09,0,0,0,2.59-9.69L713.18,377a7.09,7.09,0,0,0-9.69-2.59l-34.51,20a7.09,7.09,0,0,0-2.59,9.69Z"/><path class="cls-1" d="M303.06,614.15a7.09,7.09,0,0,0-9.69-2.59l-34.51,20a7.09,7.09,0,0,0-2.59,9.69l15.12,26.15a7.09,7.09,0,0,0,9.69,2.59l34.51-20a7.09,7.09,0,0,0,2.59-9.69Z"/><path class="cls-1" d="M385.92,287.39a7.09,7.09,0,0,0-9.65-2.71l-26.34,14.79a7.09,7.09,0,0,0-2.71,9.65l19.52,34.76a7.09,7.09,0,0,0,9.65,2.71l26.34-14.79a7.09,7.09,0,0,0,2.71-9.65Z"/><path class="cls-1" d="M617.84,700.49a7.09,7.09,0,0,0-9.65-2.71l-26.34,14.79a7.09,7.09,0,0,0-2.71,9.65L598.65,757a7.09,7.09,0,0,0,9.65,2.71l26.34-14.79a7.09,7.09,0,0,0,2.71-9.65Z"/><path class="cls-1" d="M258,414.61L292.7,434.3a7.09,7.09,0,0,0,9.67-2.66l14.93-26.26a7.09,7.09,0,0,0-2.66-9.67L280,376a7.09,7.09,0,0,0-9.67,2.66l-14.92,26.26A7.09,7.09,0,0,0,258,414.61Z"/><path class="cls-1" d="M726.53,629.76l-34.66-19.69a7.09,7.09,0,0,0-9.67,2.66L667.28,639a7.09,7.09,0,0,0,2.66,9.67l34.66,19.69a7.09,7.09,0,0,0,9.67-2.66l14.92-26.26A7.09,7.09,0,0,0,726.53,629.76Z"/><path class="cls-3" d="M1001.52,1058.15c7.72,0,7.73-12,0-12s-7.73,12,0,12h0Z"/></svg>