<svg id="Layer_1" data-name="Layer 1" xmlns="http://www.w3.org/2000/svg" viewBox="0 0 252 72"><defs><style>.cls-1{fill:#59585a;}.cls-2{fill:#17aa9d;}.cls-3{fill:#75beb6;}.cls-4{fill:#b0d6d1;}.cls-5{fill:#73bfb6;}.cls-6{fill:#c5e1dd;}</style></defs><title>TriConf sticker</title><path class="cls-1" d="M66,22.54H52.17v-9.3l38.77,0v9.3l-13.85,0V58.43H66V22.54Z"/><path class="cls-1" d="M80.61,25.88l10.33,0v7.52H91a10.85,10.85,0,0,1,10.44-7.51,7.31,7.31,0,0,1,1.26.13V36.18a11.66,11.66,0,0,0-2.21-.19c-2.59,0-6.83.82-8.41,5.69a14.79,14.79,0,0,0-.57,4.42V58.43H80.61V25.88Z"/><path class="cls-1" d="M106.25,25.91h10.93V58.46H106.25V25.91Zm0.13-12.64h10.68v9.3H106.38v-9.3Z"/><path class="cls-1" d="M143.6,13.24c10.62,0,16,5.75,16,5.75l-2.34,3.23a20.86,20.86,0,0,0-13.52-4.93c-10.43,0-17.89,8.09-17.89,18.58s7.46,19.28,18,19.28a20.78,20.78,0,0,0,14.41-5.94l2.53,3.1a23.7,23.7,0,0,1-17,6.89c-13.15,0-22.5-10.31-22.5-23.26S130.9,13.24,143.6,13.24Z"/><path class="cls-1" d="M179.89,25.88a16.65,16.65,0,1,1-16.82,16.49A16.46,16.46,0,0,1,179.89,25.88Zm0,29.45c6.82,0,12.38-5.56,12.38-13a12.39,12.39,0,1,0-24.77,0C167.5,49.77,173.06,55.33,179.89,55.33Z"/><path class="cls-1" d="M200.48,25.88h4.27v5.5c0,1.39-.12,2.53-0.12,2.53h0.13a13.54,13.54,0,0,1,12.7-8c7.84,0,10.62,4.49,10.62,12.32V58.43h-4.3V39.34c0-5-.76-9.42-6.89-9.42a12.09,12.09,0,0,0-11.57,9,15.86,15.86,0,0,0-.5,4.3V58.43h-4.3Z"/><path class="cls-1" d="M234.08,29.48h-4v-3.6h4V24.95c0-10.49,7.4-11.71,11-11.71a12.89,12.89,0,0,1,2,.13v3.85a8.49,8.49,0,0,0-1.52-.13c-2.47,0-7.14.78-7.14,7.86v0.93h8.16v3.6h-8.16l0,28.94H234Z"/><path class="cls-2" d="M42.38,32.36A10.66,10.66,0,1,0,25,24,13.7,13.7,0,0,1,42.38,32.36Z"/><path class="cls-3" d="M15.78,37a13.65,13.65,0,0,1,3.12-8.7A10.66,10.66,0,1,0,20.3,47.14,13.66,13.66,0,0,1,15.78,37Z"/><path class="cls-4" d="M42.89,39.77A13.69,13.69,0,0,1,27.21,50.48,10.66,10.66,0,1,0,42.89,39.77Z"/><path class="cls-5" d="M35.63,34.76a10.62,10.62,0,0,0,6.75-2.41A13.7,13.7,0,0,0,25,24V24.1A10.66,10.66,0,0,0,35.63,34.76Z"/><path class="cls-4" d="M25.36,38.07a10.67,10.67,0,0,0-6.45-9.8A13.7,13.7,0,0,0,20.3,47.14,10.66,10.66,0,0,0,25.36,38.07Z"/><path class="cls-6" d="M42.89,39.77a10.56,10.56,0,0,0-5.11-1.31A10.66,10.66,0,0,0,27.12,49.13a10.11,10.11,0,0,0,.09,1.35A13.69,13.69,0,0,0,42.89,39.77Z"/></svg>